<?xml version="1.0" encoding="utf-8"?>
<!-- Generator: Adobe Illustrator 24.1.1, SVG Export Plug-In . SVG Version: 6.00 Build 0)  -->
<svg version="1.1" id="Layer_1" xmlns="http://www.w3.org/2000/svg" xmlns:xlink="http://www.w3.org/1999/xlink" x="0px" y="0px"
	 viewBox="0 0 320 80" style="enable-background:new 0 0 320 80;" xml:space="preserve">
<style type="text/css">
	.st0{fill:#E63946;}
</style>
<g>
	<path class="st0" d="M8,40.2V6.6h9.6v33.6H8z"/>
	<path class="st0" d="M20.5,6.3l9.8-0.5l2.3,22.3l0.3,4.7h0.3l0.5-4.7l3.3-21.6h11.7l3.1,21.6l0.5,4.7h0.3l0.3-4.7l2.4-22.3L65,6.3
		l-6.9,33.8H46l-2.7-21.6L42.9,14h-0.3l-0.4,4.7l-2.8,21.6H27.2L20.5,6.3z"/>
	<path class="st0" d="M89.7,34.3h0.8v6.2h-4.4c-2.4,0-4.2-1-5.3-2.9c-1,1.2-1.9,2-2.8,2.5c-0.9,0.5-2,0.8-3.4,0.8
		c-2.4,0-4.6-1.1-6.5-3.2c-1.9-2.1-2.8-5.3-2.8-9.5c0-2.2,0.4-4.1,1.1-5.8c0.8-1.7,1.7-3,3-4c1.2-1,2.5-1.7,3.9-2.2s2.8-0.7,4.3-0.7
		c3.9,0,7.5,0.9,10.9,2.8v14.9C88.6,33.9,89,34.3,89.7,34.3z M77.3,34.9c0.8,0,1.6-0.7,2.4-2.2V21.8c-0.5-0.4-1.2-0.7-2-0.7
		c-1.1,0-1.8,0.5-2.4,1.6c-0.5,1.1-0.8,2.9-0.8,5.4c0,2,0.3,3.6,0.8,4.9C75.8,34.3,76.5,34.9,77.3,34.9z"/>
	<path class="st0" d="M117.7,34.3h0.8v6.2h-4.4c-2,0-3.6-0.7-4.7-2.1c-1.1-1.4-1.7-3.1-1.7-5.3v-8.7c0-0.6-0.2-1.1-0.5-1.4
		c-0.3-0.3-0.7-0.5-1.1-0.5c-1.1,0-2,0.7-2.7,2v15.6h-8.9V23.5c0-0.7-0.4-1.1-1.1-1.1h-0.8v-6.2H97c2.8,0,4.7,1.2,5.8,3.7
		c2.1-3,4.5-4.5,7.2-4.5c1.8,0,3.4,0.6,4.7,1.7c1.3,1.2,2,2.8,2,5v10.9C116.6,33.9,117,34.3,117.7,34.3z"/>
	<path class="st0" d="M145.7,34.3h0.8v6.2h-4.4c-2,0-3.6-0.7-4.7-2.1c-1.1-1.4-1.7-3.1-1.7-5.3v-8.7c0-0.6-0.2-1.1-0.5-1.4
		c-0.3-0.3-0.7-0.5-1.1-0.5c-1.1,0-2,0.7-2.7,2v15.6h-8.9V23.5c0-0.7-0.4-1.1-1.1-1.1h-0.8v-6.2h4.4c2.8,0,4.7,1.2,5.8,3.7
		c2.1-3,4.5-4.5,7.2-4.5c1.8,0,3.4,0.6,4.7,1.7c1.3,1.2,2,2.8,2,5v10.9C144.6,33.9,145,34.3,145.7,34.3z"/>
	<path class="st0" d="M173.4,34.3h0.8v6.2h-4.4c-2.4,0-4.2-1-5.3-2.9c-1,1.2-1.9,2-2.8,2.5c-0.9,0.5-2,0.8-3.4,0.8
		c-2.4,0-4.6-1.1-6.5-3.2c-1.9-2.1-2.8-5.3-2.8-9.5c0-2.2,0.4-4.1,1.1-5.8c0.8-1.7,1.7-3,3-4c1.2-1,2.5-1.7,3.9-2.2s2.8-0.7,4.3-0.7
		c3.9,0,7.5,0.9,10.9,2.8v14.9C172.3,33.9,172.7,34.3,173.4,34.3z M161,34.9c0.8,0,1.6-0.7,2.4-2.2V21.8c-0.5-0.4-1.2-0.7-2-0.7
		c-1.1,0-1.8,0.5-2.4,1.6c-0.5,1.1-0.8,2.9-0.8,5.4c0,2,0.3,3.6,0.8,4.9S160.2,34.9,161,34.9z"/>
	<path class="st0" d="M175.3,6.3l9.8-0.5l2.3,22.3l0.3,4.7h0.3l0.5-4.7l3.3-21.6h11.7l3.1,21.6l0.5,4.7h0.3l0.3-4.7L210,5.9l9.8,0.5
		L213,40.2h-12.2L198,18.6l-0.3-4.7h-0.3l-0.4,4.7l-2.8,21.6H182L175.3,6.3z"/>
	<path class="st0" d="M244.5,34.3h0.8v6.2h-4.4c-2.4,0-4.2-1-5.3-2.9c-1,1.2-1.9,2-2.8,2.5c-0.9,0.5-2,0.8-3.4,0.8
		c-2.4,0-4.6-1.1-6.5-3.2c-1.9-2.1-2.8-5.3-2.8-9.5c0-2.2,0.4-4.1,1.1-5.8c0.8-1.7,1.7-3,3-4c1.2-1,2.5-1.7,3.9-2.2s2.8-0.7,4.3-0.7
		c3.9,0,7.5,0.9,10.9,2.8v14.9C243.4,33.9,243.8,34.3,244.5,34.3z M232.1,34.9c0.8,0,1.6-0.7,2.4-2.2V21.8c-0.5-0.4-1.2-0.7-2-0.7
		c-1.1,0-1.8,0.5-2.4,1.6c-0.5,1.1-0.8,2.9-0.8,5.4c0,2,0.3,3.6,0.8,4.9S231.3,34.9,232.1,34.9z"/>
	<path class="st0" d="M263.3,33.6l2.9,4.5c-2,1.9-4.6,2.8-8.1,2.8c-2.6,0-4.8-0.7-6.4-2.2s-2.4-3.3-2.4-5.7V22.4h-2.8v-6.2h2.8v-5.4
		l8.9-1.8v7.2h7.2l-1.4,6.2h-5.8V33c0,0.6,0.2,1.1,0.5,1.4c0.3,0.4,0.8,0.5,1.3,0.5C260.9,34.9,262,34.5,263.3,33.6z"/>
	<path class="st0" d="M279,40.9c-3.8,0-6.7-1-8.7-3c-2-2-3-5.2-3-9.7c0-4.4,1-7.7,3-9.7c2-2,4.9-3,8.7-3c3.7,0,6.8,0.9,9.1,2.6
		l-3.6,5.6c-0.5-0.4-1.4-0.9-2.5-1.4c-1.2-0.6-2.2-0.8-3-0.8c-1,0-1.6,0.5-2,1.5c-0.4,1-0.6,2.7-0.6,5.2c0,2.5,0.2,4.3,0.6,5.3
		c0.4,1,1.1,1.5,2,1.5c1,0,2.1-0.2,3.2-0.7c1.2-0.5,2-0.9,2.5-1.4l3.4,4.9C285.7,39.9,282.7,40.9,279,40.9z"/>
	<path class="st0" d="M313.7,34.3h0.8v6.2h-4.4c-2,0-3.6-0.7-4.7-2.1c-1.1-1.4-1.7-3.1-1.7-5.3v-8.3c0-1.6-0.6-2.4-1.7-2.4
		c-1.1,0-2,0.6-2.6,1.8v15.9h-8.9V5.3l8.9-1.8v15.4c1.9-2.2,4-3.4,6.5-3.4c1.8,0,3.4,0.6,4.7,1.7s2,2.6,2,4.6v11.4
		C312.6,33.9,313,34.3,313.7,34.3z"/>
</g>
<g>
	<path class="st0" d="M99.5,66.5c-0.1-0.1-0.2-0.3-0.2-0.6V52.1c0-0.3,0.1-0.5,0.2-0.6s0.3-0.2,0.6-0.2h4.2c1.7,0,3,0.3,3.8,1
		c0.8,0.7,1.3,1.6,1.3,2.8c0,0.7-0.2,1.4-0.7,2s-1,1.1-1.7,1.3l0,0.1c0.4,0.1,0.9,0.3,1.3,0.6c0.5,0.3,0.9,0.7,1.2,1.3
		c0.3,0.5,0.5,1.1,0.5,1.8c0,1.5-0.5,2.6-1.4,3.3s-2.3,1.1-4.2,1.1h-4.4C99.8,66.7,99.6,66.6,99.5,66.5z M104.1,57.6
		c0.7,0,1.3-0.2,1.7-0.6c0.4-0.4,0.6-0.8,0.6-1.4c0-1.3-0.8-1.9-2.4-1.9h-1.9v3.9H104.1z M104.7,64.2c0.8,0,1.3-0.2,1.8-0.6
		c0.4-0.4,0.6-0.9,0.6-1.6c0-0.6-0.2-1.1-0.7-1.5c-0.5-0.3-1.1-0.5-2-0.5h-2.2v4.2H104.7z"/>
	<path class="st0" d="M112.9,65.3c-0.9-1-1.4-2.4-1.4-4.3c0-2,0.5-3.5,1.4-4.5c0.9-1,2.2-1.5,3.9-1.5c1.6,0,2.8,0.5,3.5,1.5
		c0.8,1,1.2,2.4,1.2,4.2c0,0.2-0.1,0.4-0.4,0.7s-0.5,0.5-0.6,0.5h-6.1c0.1,1,0.3,1.7,0.8,2.1c0.5,0.4,1.1,0.6,2,0.6
		c0.8,0,1.6-0.2,2.4-0.6c0.2-0.1,0.4-0.2,0.4-0.2c0.2,0,0.4,0.2,0.6,0.6c0.2,0.4,0.4,0.7,0.4,0.9c0,0.3-0.2,0.5-0.6,0.8
		s-0.9,0.4-1.6,0.5c-0.6,0.1-1.2,0.2-1.7,0.2C115.3,66.8,113.9,66.3,112.9,65.3z M118.7,59.9c0-0.8-0.2-1.5-0.5-2
		c-0.3-0.5-0.8-0.7-1.5-0.7c-1.4,0-2.1,0.9-2.4,2.7H118.7z"/>
	<path class="st0" d="M132.8,55.6c0,0.1,0,0.2-0.1,0.4l-5.3,14.8c-0.1,0.3-0.5,0.5-1.2,0.5h-0.4c-0.4,0-0.6,0-0.8-0.1
		c-0.2-0.1-0.3-0.2-0.3-0.3c0-0.1,0-0.2,0.1-0.4l1.5-4l-3.7-10.5c0,0,0-0.1,0-0.2c0-0.1,0-0.1,0-0.2c0-0.3,0.4-0.4,1.2-0.4h0.5
		c0.6,0,1,0.1,1.1,0.4l1.6,4.7c0.2,0.5,0.4,1.3,0.6,2.5h0.1L128,62c0.2-0.7,0.3-1.3,0.5-1.7l1.6-4.7c0.1-0.3,0.5-0.4,1.1-0.4h0.4
		C132.4,55.1,132.8,55.3,132.8,55.6z"/>
	<path class="st0" d="M135.3,65.3c-0.9-1-1.3-2.5-1.3-4.4c0-1.9,0.4-3.4,1.3-4.4s2.2-1.5,3.9-1.5c1.7,0,3,0.5,3.9,1.5
		s1.3,2.5,1.3,4.4c0,1.9-0.4,3.4-1.3,4.4c-0.9,1-2.2,1.5-3.9,1.5C137.5,66.8,136.2,66.3,135.3,65.3z M141,63.7
		c0.4-0.6,0.6-1.5,0.6-2.8c0-1.2-0.2-2.2-0.6-2.8c-0.4-0.6-1-0.9-1.8-0.9c-0.8,0-1.4,0.3-1.8,0.9c-0.4,0.6-0.6,1.5-0.6,2.8
		c0,1.2,0.2,2.2,0.6,2.8c0.4,0.6,1,0.9,1.8,0.9C140.1,64.6,140.7,64.3,141,63.7z"/>
	<path class="st0" d="M147,66.1v-7.2c0-1,0-1.7-0.1-2.2c-0.1-0.5-0.1-0.7-0.1-0.8c0-0.2,0.2-0.4,0.7-0.5c0.5-0.1,0.9-0.2,1.3-0.2
		c0.2,0,0.4,0.1,0.5,0.3c0.1,0.2,0.2,0.4,0.2,0.7c0.1,0.2,0.1,0.4,0.1,0.5c0.4-0.5,0.9-0.9,1.5-1.2c0.6-0.3,1.2-0.5,1.9-0.5
		c2.2,0,3.3,1.2,3.3,3.6v7.5c0,0.2-0.1,0.4-0.3,0.5c-0.2,0.1-0.5,0.2-0.9,0.2h-0.4c-0.8,0-1.2-0.2-1.2-0.6v-7.1
		c0-1.1-0.6-1.6-1.7-1.6c-0.4,0-0.8,0.1-1.2,0.4s-0.7,0.6-0.9,1v7.4c0,0.4-0.4,0.6-1.2,0.6h-0.4C147.4,66.7,147,66.5,147,66.1z"/>
	<path class="st0" d="M160.7,66.1c-0.6-0.5-1.1-1.2-1.5-2c-0.4-0.9-0.5-1.9-0.5-3.2c0-1.8,0.4-3.3,1.2-4.3c0.8-1,1.9-1.6,3.4-1.6
		c1,0,1.8,0.3,2.6,0.8v-5.1c0-0.4,0.4-0.6,1.2-0.6h0.4c0.8,0,1.2,0.2,1.2,0.6V63c0,1,0,1.7,0.1,2.2s0.1,0.7,0.1,0.8
		c0,0.2-0.2,0.4-0.7,0.5c-0.5,0.1-0.9,0.2-1.3,0.2c-0.2,0-0.4-0.1-0.5-0.3s-0.2-0.4-0.2-0.7c-0.1-0.2-0.1-0.4-0.1-0.5
		c-0.4,0.5-0.8,0.9-1.4,1.2c-0.5,0.3-1.1,0.4-1.8,0.4C162.1,66.8,161.4,66.6,160.7,66.1z M165.9,63.1v-5.3c-0.6-0.4-1.2-0.6-1.9-0.6
		c-1.6,0-2.4,1.2-2.4,3.6c0,1.2,0.2,2.1,0.5,2.7c0.4,0.6,0.9,0.9,1.6,0.9C164.5,64.5,165.2,64.1,165.9,63.1z"/>
	<path class="st0" d="M180,66.1V53.7h-3.7c-0.2,0-0.4-0.1-0.5-0.2c-0.1-0.1-0.1-0.4-0.1-0.7v-0.6c0-0.3,0-0.6,0.1-0.7
		c0.1-0.1,0.2-0.2,0.5-0.2h10.4c0.2,0,0.4,0.1,0.5,0.2c0.1,0.1,0.1,0.4,0.1,0.7v0.6c0,0.3,0,0.6-0.1,0.7s-0.2,0.2-0.5,0.2h-3.7v12.3
		c0,0.4-0.4,0.6-1.2,0.6h-0.6C180.4,66.7,180,66.5,180,66.1z"/>
	<path class="st0" d="M189,52.8v-1.4c0-0.5,0.5-0.7,1.4-0.7c0.9,0,1.4,0.2,1.4,0.7v1.4c0,0.3-0.1,0.4-0.3,0.5
		c-0.2,0.1-0.6,0.2-1.1,0.2C189.5,53.5,189,53.3,189,52.8z M189.1,66.1V55.8c0-0.4,0.4-0.6,1.2-0.6h0.4c0.8,0,1.2,0.2,1.2,0.6v10.3
		c0,0.4-0.4,0.6-1.2,0.6h-0.4C189.4,66.7,189.1,66.5,189.1,66.1z"/>
	<path class="st0" d="M210.5,58.6v7.5c0,0.4-0.4,0.6-1.2,0.6h-0.4c-0.8,0-1.2-0.2-1.2-0.6v-7.1c0-1.1-0.5-1.6-1.6-1.6
		c-0.5,0-0.9,0.1-1.2,0.4c-0.4,0.3-0.6,0.6-0.8,0.9v7.4c0,0.4-0.4,0.6-1.2,0.6h-0.4c-0.4,0-0.7-0.1-0.9-0.2
		c-0.2-0.1-0.3-0.3-0.3-0.5v-7.1c0-1.1-0.5-1.6-1.6-1.6c-0.5,0-0.9,0.2-1.3,0.5c-0.4,0.3-0.6,0.6-0.8,0.9v7.4c0,0.4-0.4,0.6-1.2,0.6
		h-0.4c-0.8,0-1.2-0.2-1.2-0.6v-7.2c0-1,0-1.7-0.1-2.2s-0.1-0.7-0.1-0.8c0-0.2,0.2-0.4,0.7-0.5c0.5-0.1,0.9-0.2,1.3-0.2
		c0.2,0,0.4,0.1,0.5,0.3s0.2,0.4,0.2,0.6c0.1,0.2,0.1,0.4,0.1,0.5c0.4-0.5,0.9-0.9,1.4-1.2c0.6-0.3,1.2-0.5,1.9-0.5
		c1.5,0,2.5,0.6,3,1.7c0.4-0.5,0.9-0.9,1.5-1.2s1.3-0.5,1.9-0.5C209.4,55,210.5,56.2,210.5,58.6z"/>
	<path class="st0" d="M214.4,65.3c-0.9-1-1.4-2.4-1.4-4.3c0-2,0.5-3.5,1.4-4.5c0.9-1,2.2-1.5,3.9-1.5c1.6,0,2.8,0.5,3.5,1.5
		c0.8,1,1.2,2.4,1.2,4.2c0,0.2-0.1,0.4-0.4,0.7s-0.5,0.5-0.6,0.5h-6.1c0.1,1,0.3,1.7,0.8,2.1s1.1,0.6,2,0.6c0.8,0,1.6-0.2,2.4-0.6
		c0.2-0.1,0.4-0.2,0.4-0.2c0.2,0,0.4,0.2,0.6,0.6s0.4,0.7,0.4,0.9c0,0.3-0.2,0.5-0.6,0.8s-0.9,0.4-1.6,0.5c-0.6,0.1-1.2,0.2-1.7,0.2
		C216.8,66.8,215.3,66.3,214.4,65.3z M220.2,59.9c0-0.8-0.2-1.5-0.5-2c-0.3-0.5-0.8-0.7-1.5-0.7c-1.4,0-2.1,0.9-2.4,2.7H220.2z"/>
</g>
<g>
</g>
<g>
</g>
<g>
</g>
<g>
</g>
<g>
</g>
<g>
</g>
<g>
</g>
<g>
</g>
<g>
</g>
<g>
</g>
<g>
</g>
</svg>
